<svg width="342" height="512" viewBox="0 0 342 512" fill="none" xmlns="http://www.w3.org/2000/svg">
<path d="M329.153 0H12.8467C6.21968 0 0.84668 5.373 0.84668 12V500C0.84668 504.774 3.67668 509.094 8.05368 511.001C12.4307 512.907 17.5207 512.038 21.0177 508.788L171.748 368.655L320.939 508.748C323.209 510.879 326.16 512 329.156 512C330.764 512 332.385 511.677 333.919 511.013C338.311 509.113 341.153 504.785 341.153 500V12C341.153 5.373 335.78 0 329.153 0ZM317.153 472.271L180.003 343.485C175.403 339.166 168.241 339.147 163.618 343.445L24.8467 472.459V24H317.154L317.153 472.271Z" fill="#ACACAC"/>
</svg>
