<svg width="460" height="439" viewBox="0 0 460 439" fill="none" xmlns="http://www.w3.org/2000/svg">
<path d="M128.666 144.667C128.666 135.83 135.83 128.667 144.666 128.667H229.999C238.836 128.667 245.999 135.83 245.999 144.667C245.999 153.503 238.836 160.667 229.999 160.667H144.666C135.83 160.667 128.666 153.503 128.666 144.667Z" fill="#ACACAC"/>
<path d="M128.666 230C128.666 221.164 135.83 214 144.666 214H315.333C324.169 214 331.333 221.164 331.333 230C331.333 238.836 324.169 246 315.333 246H144.666C135.83 246 128.666 238.836 128.666 230Z" fill="#ACACAC"/>
<path fill-rule="evenodd" clip-rule="evenodd" d="M186.617 0.666656H273.383C302.646 0.666656 325.588 0.666444 344.028 2.173C362.804 3.70708 378.315 6.88276 392.355 14.0365C415.437 25.7969 434.202 44.5626 445.963 67.6437C453.116 81.6841 456.293 97.1955 457.827 115.972C459.333 134.411 459.333 157.354 459.333 186.617V212.596V215.73C459.337 248.767 459.341 268.921 454.377 285.849C442.622 325.938 411.271 357.29 371.181 369.044C354.253 374.009 334.1 374.004 301.063 374C300.03 374 298.987 374 297.929 374H286.221L284.935 374.002C266.435 374.119 248.414 379.897 233.291 390.553L232.241 391.299L176.547 431.082C144.451 454.006 102.274 420.899 116.923 384.276C118.892 379.355 115.267 374 109.965 374H97.1281C43.8534 374 0.666016 330.813 0.666016 277.537V186.617C0.666016 157.354 0.665803 134.412 2.17236 115.972C3.70644 97.1955 6.88212 81.6841 14.0358 67.6437C25.7963 44.5626 44.5619 25.7969 67.6431 14.0365C81.6834 6.88276 97.1949 3.70708 115.971 2.173C134.411 0.666444 157.353 0.666656 186.617 0.666656ZM118.577 34.0668C101.78 35.4391 90.948 38.0766 82.1709 42.5487C65.1108 51.2412 51.2405 65.1115 42.548 82.1715C38.0759 90.9487 35.4385 101.78 34.0661 118.578C32.6784 135.562 32.666 157.2 32.666 187.333V277.537C32.666 313.14 61.5266 342 97.1281 342H109.965C137.906 342 157.011 370.22 146.634 396.161C143.855 403.109 151.857 409.392 157.947 405.042L214.857 364.394C235.318 349.977 259.7 342.162 284.73 342.002L286.221 342H297.929C335.089 342 350.24 341.838 362.176 338.337C391.808 329.648 414.981 306.476 423.67 276.844C427.171 264.908 427.333 249.757 427.333 212.596V187.333C427.333 157.2 427.32 135.562 425.933 118.578C424.559 101.78 421.923 90.9487 417.451 82.1715C408.758 65.1115 394.887 51.2412 377.829 42.5487C369.05 38.0766 358.219 35.4391 341.421 34.0668C324.438 32.679 302.799 32.6667 272.666 32.6667H187.333C157.199 32.6667 135.561 32.679 118.577 34.0668Z" fill="#ACACAC"/>
</svg>
